<svg xmlns="http://www.w3.org/2000/svg">
  <symbol id="icon-logo" viewBox="0 0 32 32">
<path d="M17.5 3.14c0.384-0.042 0.83 0.038 1.2 0.143 0.838 0.238 1.518 0.747 1.922 1.474 0.242 0.418 0.386 0.92 0.386 1.456 0 0.344-0.059 0.675-0.168 0.982l0.006-0.021c-0.352 0.988-1.105 1.484-2.047 1.94l0.011 2.882c0.673 0.191 1.328 0.408 1.939 0.738 1.404 0.758 2.365 2.038 2.767 3.493 0.426 1.526 0.183 3.148-0.673 4.508-0.803 1.242-2.044 2.142-3.5 2.485l-0.039 0.008c-1.959 0.456-3.621-0.038-5.305-0.971-0.731 0.729-1.45 1.462-2.16 2.203l-0.045 0.047c0.325 0.713 0.432 1.462 0.217 2.219-0.21 0.741-0.768 1.376-1.48 1.752-0.799 0.422-1.709 0.498-2.585 0.264-0.869-0.232-1.599-0.733-2.024-1.486-0.418-0.741-0.453-1.61-0.182-2.401 0.308-0.899 0.936-1.453 1.819-1.863 0.951-0.346 1.736-0.233 2.664 0.079 0.772-0.758 1.5-1.553 2.28-2.304-0.857-1.567-1.135-2.902-0.69-4.628-0.971-0.422-1.908-0.914-2.879-1.337-0.519 0.504-1.154 0.848-1.899 0.965-0.888 0.14-1.825-0.086-2.556-0.572-0.724-0.489-1.2-1.233-1.317-2.059-0.12-0.8 0.107-1.683 0.656-2.315 0.568-0.651 1.448-1.044 2.337-1.131 0.873-0.079 1.745 0.169 2.421 0.69 0.865 0.675 1.115 1.514 1.22 2.515 0.921 0.526 1.976 0.931 2.936 1.401 1.248-1.375 2.16-1.809 3.98-2.332l0.002-2.859c-0.326-0.121-0.651-0.27-0.935-0.464-0.718-0.495-1.19-1.24-1.306-2.065-0.107-0.821 0.142-1.647 0.691-2.296 0.601-0.703 1.405-1.022 2.336-1.138zM21.512 17.362c-0.185-1.967-2.040-3.425-4.152-3.265-2.13 0.162-3.713 1.908-3.527 3.892 0.187 1.985 2.072 3.448 4.2 3.261 2.11-0.185 3.663-1.922 3.479-3.889zM27.617 12.585c0.090-0.004 0.177-0.005 0.267 0.007 0.28 0.038 0.556 0.164 0.71 0.393 0.164 0.243 0.186 0.567 0.209 0.848 0.111 1.394 0.029 2.844 0.028 4.243 0 1.142 0.136 2.692-0.092 3.791-0.072 0.346-0.318 0.511-0.613 0.698-0.112 0.013-0.23 0.027-0.343 0.021-0.259-0.011-0.49-0.123-0.656-0.298l-0-0c-0.162-0.178-0.157-0.535-0.172-0.759-0.102-1.603-0.015-3.258-0.014-4.866 0.001-0.914-0.134-2.663 0.072-3.479 0.074-0.292 0.356-0.445 0.603-0.6zM25.035 14.825c0.303 0.052 0.572 0.159 0.749 0.404 0.273 0.379 0.28 4.091 0.143 4.621-0.075 0.29-0.344 0.431-0.599 0.57-0.292-0.016-0.675-0.040-0.87-0.276-0.29-0.351-0.267-4.296-0.101-4.791 0.096-0.287 0.413-0.409 0.678-0.528z"></path>
  </symbol>  
  <symbol id="icon-icon" viewBox="0 0 17 32">
<path d="M0 31.878l17.067-14.933-17.067-14.933v29.867z"></path>
</symbol>
</svg>





