<svg aria-hidden="true" style="position: absolute; width: 0; height: 0; overflow: hidden;" version="1.1" xmlns="http://www.w3.org/2000/svg" xmlns:xlink="http://www.w3.org/1999/xlink">
<defs>
<symbol id="icon-close-btn" viewBox="0 0 32 32">
<path fill="#fff" style="fill: var(--color1, #fff)" d="M29.67 28.728l-0.942 0.942c-0.241 0.241-0.575 0.39-0.943 0.39s-0.702-0.149-0.943-0.39l-10.842-10.84-10.842 10.84c-0.241 0.241-0.575 0.39-0.943 0.39s-0.702-0.149-0.943-0.39l-0.942-0.942c-0.241-0.241-0.39-0.575-0.39-0.943s0.149-0.702 0.39-0.943l10.84-10.842-10.84-10.842c-0.241-0.241-0.39-0.575-0.39-0.943s0.149-0.702 0.39-0.943v0l0.94-0.942c0.522-0.52 1.366-0.52 1.888 0l10.84 10.84 10.844-10.84c0.52-0.52 1.366-0.52 1.886 0l0.942 0.942c0.52 0.52 0.52 1.364 0 1.886l-10.84 10.842 10.84 10.842c0.52 0.52 0.52 1.366 0 1.886z"></path>
</symbol>
<symbol id="icon-youtube-btn" viewBox="0 0 20.01 14.01">
<path fill="#fff" style="fill: var(--color1, #fff)" d="M43.932 5.154c-0.507-1.838-1.923-3.256-3.721-3.759l-0.038-0.009c-3.341-0.917-16.704-0.932-16.704-0.932s-13.367-0.015-16.71 0.862c-1.833 0.534-3.246 1.955-3.758 3.755l-0.009 0.038c-0.879 3.341-0.887 10.272-0.887 10.272s-0.009 6.963 0.866 10.27c0.491 1.828 1.931 3.273 3.761 3.765 3.375 0.917 16.704 0.932 16.704 0.932s13.365 0.015 16.706-0.86c1.837-0.51 3.255-1.926 3.761-3.723l0.009-0.038c0.883-3.339 0.89-10.266 0.89-10.266s0.043-6.965-0.868-10.304zM19.191 21.798l0.011-12.8 11.108 6.411-11.119 6.389z"></path>
</symbol>
</defs>
</svg>
