<svg aria-hidden="true" style="position: absolute; width: 0; height: 0; overflow: hidden;" version="1.1" xmlns="http://www.w3.org/2000/svg" xmlns:xlink="http://www.w3.org/1999/xlink">
<defs>
<symbol id="icon-close-btn" viewBox="0 0 32 32">
<path fill="#fff" style="fill: var(--color1, #fff)" d="M29.67 28.728l-0.942 0.942c-0.241 0.241-0.575 0.39-0.943 0.39s-0.702-0.149-0.943-0.39l-10.842-10.84-10.842 10.84c-0.241 0.241-0.575 0.39-0.943 0.39s-0.702-0.149-0.943-0.39l-0.942-0.942c-0.241-0.241-0.39-0.575-0.39-0.943s0.149-0.702 0.39-0.943l10.84-10.842-10.84-10.842c-0.241-0.241-0.39-0.575-0.39-0.943s0.149-0.702 0.39-0.943v0l0.94-0.942c0.522-0.52 1.366-0.52 1.888 0l10.84 10.84 10.844-10.84c0.52-0.52 1.366-0.52 1.886 0l0.942 0.942c0.52 0.52 0.52 1.364 0 1.886l-10.84 10.842 10.84 10.842c0.52 0.52 0.52 1.366 0 1.886z"></path>
</symbol>
<symbol id="icon-youtube-btn" viewBox="0 0 45 32">
      <path fill="#fff" d="M43.932 4.7A5.349 5.349 0 0 0 40.173.932C36.832.015 23.467 0 23.467 0S10.104-.015 6.761.862a5.466 5.466 0 0 0-3.768 3.793c-.881 3.341-.89 10.27-.89 10.27s-.009 6.963.866 10.27A5.345 5.345 0 0 0 6.73 28.96c3.375.917 16.704.932 16.704.932s13.365.015 16.706-.86a5.366 5.366 0 0 0 3.769-3.761c.883-3.339.89-10.266.89-10.266s.043-6.965-.868-10.306zm-24.74 16.644.011-12.8 11.108 6.411-11.119 6.389z" style="fill:var(--color1, #fff)"/>
    </symbol>
</defs>
</svg>
