<svg aria-hidden="true" style="position:absolute;width:0;height:0;overflow:hidden" xmlns="http://www.w3.org/2000/svg">
  <defs>
    <symbol id="logo" viewBox="0 0 107 32">
      <path fill="#ff6b0a" style="fill:var(--color1, #ff6b0a)" d="M106.667 0v32H59.536V0h47.131zM74.42 8.811v13.927l.001.044a.842.842 0 0 1-.001.087c-.007.08.015.128.107.115a.485.485 0 0 1 .066-.001l.033.001h3.582c.075.001.112.001.129-.017s.016-.051.014-.116l-.001-.078V8.83l-.001-.033a.485.485 0 0 1 .001-.066c.008-.082-.02-.125-.109-.115-.018.002-.036.001-.054.001l-.028-.001h-3.55l-.062-.001c-.065-.001-.098-.001-.114.015s-.016.049-.015.116l.001.064zm19.579-.194h-5.863c-1.954 0-3.908 0-5.86-.002h-.133c-.066-.003-.089.028-.084.089a.486.486 0 0 1 0 .054v3.398c0 .072-.001.107.017.124s.051.017.118.016H85.923c.12 0 .18 0 .209.03s.029.087.029.2v10.335c-.001.059-.001.09.014.106.017.018.052.017.127.017h3.571c.111 0 .166 0 .193-.028s.027-.08.027-.186V12.488l-.001-.059c-.001-.063-.001-.097.015-.114.018-.019.055-.018.133-.018h3.798c.162 0 .162 0 .164-.159V8.759c.001-.072.001-.108-.016-.126s-.053-.017-.123-.016L94 8.618z"/>
      <path fill="#010101" style="fill:var(--color2, #010101)" d="m47.132 0 12.403 16-12.403 16H0V0h47.132zm-26.38 13.662.215.174a.371.371 0 0 0 .106-.107.256.256 0 0 1 .02-.026c.254-.302.507-.606.76-.91.507-.606 1.012-1.212 1.518-1.82.101-.122.097-.177-.018-.276a12.617 12.617 0 0 0-.277-.233c-.803-.657-1.685-1.17-2.684-1.467a9.43 9.43 0 0 0-2.043-.353c-.905-.061-1.802-.031-2.691.174-3.112.716-5.434 3.292-5.707 6.594a7.795 7.795 0 0 0 .225 2.638c.519 1.96 1.645 3.461 3.434 4.45.975.539 2.03.823 3.14.912.94.076 1.87.018 2.788-.189 1.553-.35 2.925-1.056 4.146-2.067a.333.333 0 0 0 .137-.289c-.004-1.572-.004-3.145-.003-4.717v-1.179a.66.66 0 0 0-.003-.062c-.003-.046-.006-.092.006-.134.015-.049-.012-.077-.037-.104-.021-.022-.042-.044-.039-.077.007-.054-.03-.062-.073-.062h-6.556l-.038.001c-.026.001-.052.002-.077-.001-.066-.007-.087.026-.083.087a.657.657 0 0 1 .001.077l-.001.038V17.839l-.001.074c-.001.063-.002.096.014.112s.052.017.125.016H19.772c.072-.001.107-.001.124.016.016.016.015.048.014.11l-.001.078v.679c0 .308 0 .311-.279.445-.818.391-1.681.503-2.573.391-.991-.123-1.784-.591-2.365-1.401-.378-.527-.585-1.122-.662-1.763-.097-.818.002-1.605.373-2.348.448-.892 1.125-1.533 2.098-1.827.682-.207 1.373-.153 2.056-.003.619.135 1.159.437 1.657.816.182.138.359.281.539.427zm18.346-2.98c-1.528-1.39-3.348-2.052-5.229-2.066-.869.002-1.518.072-2.207.251-1.998.521-3.563 1.638-4.602 3.422-1.067 1.83-1.283 3.793-.687 5.812.667 2.257 2.089 3.9 4.29 4.815 1.69.701 3.44.795 5.206.332 2.051-.537 3.624-1.725 4.654-3.578.869-1.562 1.102-3.238.778-4.987-.291-1.572-1.017-2.919-2.203-4zm-8.437 3.528c.666-1.227 1.729-1.815 2.762-1.838 2.094-.005 3.464 1.173 3.837 2.806.226.984.125 1.94-.358 2.834-.57 1.05-1.458 1.661-2.654 1.797-1.156.133-2.165-.194-2.99-1.025a3.579 3.579 0 0 1-.983-1.914c-.172-.928-.066-1.827.386-2.66z"/>
    </symbol>
    <symbol id="javascript" viewBox="0 0 32 32">
      <path fill="#f7df1e" style="fill:var(--color3, #f7df1e)" d="M0 0h32v32H0V0z"/>
      <path style="fill:var(--color4, #000)" d="m8.414 26.741 2.449-1.482c.473.838.902 1.546 1.933 1.546.988 0 1.611-.387 1.611-1.89V14.69h3.007v10.267c0 3.115-1.826 4.532-4.489 4.532-2.406 0-3.802-1.246-4.511-2.75zm10.634-.322 2.448-1.418c.645 1.053 1.482 1.826 2.964 1.826 1.246 0 2.041-.623 2.041-1.482 0-1.031-.816-1.396-2.191-1.997l-.752-.323c-2.17-.923-3.609-2.083-3.609-4.532 0-2.256 1.718-3.974 4.404-3.974 1.912 0 3.287.666 4.274 2.406l-2.341 1.504c-.516-.924-1.074-1.289-1.933-1.289-.881 0-1.439.558-1.439 1.289 0 .902.558 1.268 1.847 1.826l.752.322c2.556 1.096 3.995 2.212 3.995 4.726 0 2.707-2.127 4.189-4.983 4.189-2.792 0-4.597-1.332-5.477-3.072z"/>
    </symbol>
    <symbol id="icon-cross" viewBox="0 0 32 32">
      <path d="M29.671 28.728l-0.943 0.943c-0.521 0.521-1.365 0.521-1.886 0l-10.842-10.842-10.842 10.842c-0.521 0.521-1.365 0.521-1.886 0l-0.943-0.943c-0.521-0.521-0.521-1.365 0-1.886l10.842-10.842-10.842-10.842c-0.521-0.521-0.521-1.365 0-1.886l0.943-0.943c0.521-0.521 1.365-0.521 1.886 0l10.842 10.842 10.842-10.842c0.521-0.521 1.365-0.521 1.886 0l0.943 0.943c0.521 0.521 0.521 1.365 0 1.886l-10.842 10.842 10.842 10.842c0.521 0.521 0.521 1.365 0 1.886z"></path>
    </symbol>
    <symbol id="icon-Content" viewBox="0 0 73 32">
      <path d="M13.471 6.854c0.258-0.030 0.558 0.028 0.807 0.104 0.563 0.172 1.022 0.54 1.293 1.064 0.282 0.538 0.336 1.167 0.15 1.745-0.236 0.713-0.744 1.071-1.377 1.401l0.007 2.080c0.453 0.138 0.893 0.295 1.304 0.533 0.945 0.548 1.591 1.471 1.862 2.522 0.286 1.102 0.123 2.272-0.453 3.254-0.529 0.89-1.371 1.548-2.38 1.8-1.318 0.329-2.436-0.028-3.569-0.701-0.501 0.535-0.995 1.077-1.484 1.624 0.218 0.515 0.29 1.055 0.145 1.602-0.141 0.535-0.516 0.993-0.996 1.264-0.537 0.304-1.149 0.36-1.739 0.191-0.585-0.167-1.076-0.53-1.362-1.074-0.281-0.535-0.305-1.162-0.123-1.733 0.207-0.649 0.63-1.049 1.224-1.346 0.639-0.25 1.168-0.168 1.791 0.057 0.52-0.547 1.009-1.121 1.534-1.663-0.577-1.131-0.764-2.095-0.464-3.342-0.653-0.305-1.283-0.66-1.937-0.966-0.349 0.363-0.776 0.613-1.277 0.697-0.598 0.101-1.229-0.062-1.72-0.413-0.487-0.353-0.807-0.89-0.886-1.486-0.081-0.578 0.072-1.215 0.442-1.671 0.382-0.47 0.974-0.754 1.572-0.817 0.588-0.057 1.175 0.122 1.63 0.498 0.582 0.487 0.75 1.093 0.82 1.816 0.619 0.38 1.329 0.673 1.974 1.012 0.84-0.993 1.454-1.306 2.678-1.683l0.001-2.064c-0.219-0.088-0.438-0.194-0.629-0.335-0.483-0.357-0.8-0.895-0.878-1.491-0.072-0.593 0.095-1.19 0.465-1.659 0.404-0.507 0.945-0.738 1.572-0.821zM16.171 17.123c-0.125-1.42-1.373-2.473-2.793-2.358-1.433 0.117-2.497 1.378-2.372 2.81s1.393 2.49 2.825 2.355c1.419-0.134 2.465-1.388 2.34-2.808z"></path>
      <path d="M64.564 13.898c0.422 0.001 0.844 0.007 1.266 0.017l-0.002 2.231c0.325-0.253 0.679-0.441 1.091-0.502 0.556-0.084 1.124 0.059 1.572 0.399 0.542 0.409 0.826 1.099 0.908 1.758 0.105 0.835-0.092 1.639-0.607 2.305-0.342 0.33-0.753 0.561-1.226 0.639-0.695 0.114-1.245-0.129-1.786-0.533l-0.002 0.487-1.212-0.002-0.001-6.799zM66.734 16.821c-0.376 0.125-0.638 0.304-0.822 0.666-0.204 0.402-0.218 0.899-0.058 1.318 0.121 0.321 0.349 0.599 0.666 0.742 0.23 0.104 0.447 0.107 0.695 0.093 0.393-0.149 0.657-0.339 0.835-0.733 0.186-0.411 0.183-0.906 0.007-1.32-0.135-0.318-0.377-0.574-0.702-0.7-0.203-0.078-0.407-0.089-0.621-0.066z"></path>
      <path d="M28.297 13.885c0.743 2.289 1.693 4.516 2.418 6.811l-1.369 0.002c-0.16-0.49-0.315-1.045-0.56-1.498-0.16-0.068-0.349-0.045-0.52-0.043-0.66 0.007-1.321 0.004-1.981-0.007-0.207 0.506-0.374 1.026-0.538 1.547l-1.394-0.001c0.728-2.285 1.596-4.541 2.382-6.808 0.52 0.011 1.043-0.001 1.563-0.003zM27.517 15.577c-0.288 0.819-0.557 1.65-0.873 2.459l1.002-0.001 0.779-0.009c-0.11-0.309-0.745-2.313-0.909-2.449z"></path>
      <path d="M57.159 13.9l1.309 0.008c-0.018 1.578-0.004 3.159-0.004 4.737-0 0.651 0.066 1.363-0.007 2.006l-0.072 0.049h-1.227l-0.003-2.914c-0.981-0.027-1.969-0.003-2.951-0.002l0 2.917-1.317-0.003 0.005-6.796 1.312 0.003 0.001 2.779h2.955l-0.002-2.784z"></path>
      <path d="M59.255 15.784c0.434 0.012 0.87 0.008 1.304 0.010-0.005 0.695-0.115 2.613 0.053 3.188 0.066 0.227 0.199 0.434 0.413 0.544 0.322 0.166 0.65 0.070 0.971-0.043 0.142-0.159 0.264-0.307 0.334-0.512 0.23-0.67 0.107-2.388 0.103-3.185 0.414 0.011 0.829 0.002 1.243 0-0.010 0.477-0.002 0.956-0.002 1.433l0.006 3.478c-0.407 0.006-0.814 0.003-1.22-0.009l-0.038-0.044c0.006-0.103 0.007-0.187-0.010-0.29-0.382 0.165-0.721 0.416-1.154 0.424-0.503 0.010-1.048-0.146-1.409-0.508-0.274-0.274-0.441-0.642-0.526-1.015-0.185-0.803-0.076-2.583-0.068-3.472z"></path>
      <path d="M41.659 15.647c0.649-0.051 1.326-0.005 1.85 0.432 0.368 0.306 0.487 0.674 0.526 1.131l-1.173-0.001c-0.068-0.126-0.135-0.271-0.241-0.369-0.169-0.156-0.414-0.237-0.643-0.225-0.178 0.010-0.405 0.081-0.515 0.231-0.067 0.091-0.104 0.186-0.078 0.3 0.133 0.602 1.663 0.527 2.15 0.846 0.31 0.203 0.548 0.567 0.617 0.93 0.069 0.371-0.020 0.755-0.244 1.058-0.374 0.515-0.95 0.701-1.549 0.793-0.555 0.034-1.199-0.115-1.643-0.454-0.416-0.317-0.566-0.706-0.623-1.207 0.395 0.001 0.791-0.003 1.186-0.011 0.023 0.074 0.049 0.146 0.086 0.215 0.172 0.318 0.516 0.388 0.834 0.482 0.21-0.048 0.495-0.102 0.645-0.272 0.090-0.103 0.122-0.281 0.084-0.412-0.146-0.503-1.612-0.562-2.12-0.875-0.301-0.186-0.522-0.456-0.603-0.804-0.072-0.316-0.045-0.671 0.133-0.948 0.321-0.501 0.763-0.707 1.321-0.84z"></path>
      <path d="M49.555 15.645c0.369-0.030 0.731-0.028 1.092 0.070 0.416 0.113 0.857 0.345 1.067 0.738 0.101 0.189 0.179 0.528 0.111 0.738-0.337 0.073-0.748 0.024-1.094 0.020-0.051-0.171-0.094-0.303-0.233-0.422-0.176-0.147-0.405-0.217-0.633-0.192-0.179 0.018-0.408 0.106-0.508 0.266-0.060 0.095-0.084 0.193-0.047 0.303 0.216 0.637 1.511 0.485 2.015 0.773 0.321 0.183 0.589 0.506 0.68 0.867 0.098 0.387 0.033 0.818-0.19 1.151-0.334 0.498-0.864 0.685-1.423 0.793-0.549 0.068-1.185-0.049-1.645-0.366-0.471-0.325-0.613-0.733-0.719-1.266l1.176-0.009c0.071 0.18 0.136 0.32 0.289 0.445 0.203 0.166 0.444 0.242 0.706 0.207 0.203-0.027 0.403-0.12 0.525-0.29 0.079-0.112 0.119-0.247 0.081-0.383-0.147-0.523-1.446-0.491-1.961-0.768-0.348-0.188-0.624-0.5-0.734-0.883-0.094-0.324-0.054-0.662 0.117-0.953 0.285-0.483 0.806-0.719 1.33-0.84z"></path>
      <path d="M35.074 14.434c0.39 0.013 0.784 0.005 1.175 0.007-0.004 0.441 0.002 0.882 0.019 1.323l1.159 0.001-0.003 1.010-1.104-0c0 0.636-0.145 2.276 0.147 2.767 0.228 0.18 0.683 0.112 0.959 0.109l-0.004 0.837c0.003 0.086 0.002 0.13-0.042 0.205-0.154 0.074-0.312 0.091-0.483 0.092-0.448 0.004-1.067-0.077-1.39-0.413-0.647-0.674-0.441-2.657-0.437-3.598l-0.748 0.001 0.002-1.012 0.745 0.005 0.004-1.333z"></path>
      <path d="M45.149 14.429l1.153 0.007c-0.009 0.442 0.010 0.886 0.018 1.327l1.178-0.002-0.002 1.015-1.108-0.001c0.013 0.605-0.135 2.295 0.139 2.753 0.295 0.176 0.664 0.129 0.995 0.128-0.004 0.291 0.002 0.584 0.003 0.876l-0.014 0.111c-0.114 0.121-0.29 0.115-0.445 0.119-0.474 0.011-1.128-0.064-1.471-0.423-0.641-0.671-0.441-2.626-0.436-3.564l-0.789 0c-0.010-0.336-0.006-0.673-0.009-1.009l0.786 0.004 0.002-1.341z"></path>
      <path d="M20.278 13.674c0.061-0.003 0.119-0.004 0.18 0.005 0.188 0.027 0.374 0.118 0.478 0.284 0.11 0.176 0.125 0.409 0.14 0.613 0.075 1.006 0.019 2.053 0.019 3.063-0 0.825 0.091 1.943-0.062 2.737-0.048 0.25-0.214 0.369-0.412 0.504-0.076 0.009-0.155 0.020-0.231 0.015-0.17-0.010-0.331-0.085-0.441-0.215-0.109-0.128-0.106-0.386-0.115-0.548-0.069-1.158-0.011-2.352-0.010-3.513 0.001-0.66-0.090-1.923 0.049-2.512 0.050-0.211 0.239-0.321 0.405-0.433z"></path>
      <path d="M33.645 15.746l0.166-0.002c0.196 0.22 0.099 0.915 0.093 1.203-0.415-0.004-0.807-0.021-1.132 0.281-0.61 0.566-0.404 2.638-0.41 3.47-0.327-0.003-0.964 0.116-1.213-0.091l-0.013-0.206c0.006-1.541-0.033-3.082-0.023-4.623 0.396 0.012 0.793 0.004 1.189 0.002l-0.014 0.681c0.073-0.105 0.146-0.218 0.232-0.314 0.3-0.338 0.707-0.369 1.127-0.399z"></path>
      <path d="M38.147 15.766l1.243 0.001 0.003 4.933-1.258-0.002 0.011-4.932z"></path>
      <path d="M18.54 15.29c0.204 0.038 0.385 0.114 0.504 0.292 0.183 0.274 0.188 2.954 0.096 3.336-0.050 0.209-0.231 0.311-0.403 0.412-0.197-0.012-0.455-0.029-0.586-0.2-0.195-0.253-0.179-3.102-0.068-3.459 0.065-0.207 0.278-0.295 0.456-0.381z"></path>
      <path d="M38.687 13.734c0.369-0.043 0.707 0.215 0.761 0.583s-0.194 0.712-0.56 0.778c-0.247 0.044-0.498-0.050-0.655-0.245s-0.197-0.46-0.102-0.692c0.095-0.232 0.308-0.394 0.556-0.424z"></path>
    </symbol>
    <symbol id="icon-Icon" viewBox="0 0 32 32">
      <path d="M10.667 12h10.667v1.333h-10.667v-1.333zM13.333 15.333h8v1.333h-8v-1.333zM16.667 18.667h4.667v1.333h-4.667v-1.333z"></path>
    </symbol>
  </defs>
</svg>